# xmcd
#
# Track frame offsets:
#	150
#	12662
#	22901
#	31489
#	42665
#	54552
#	66492
#	77906
#	88257
#	98046
#	109651
#	120559
#	134694
#	143426
#	151579
#	160858
#	170374
#	182201
#	190608
#	199959
#
# Disc length: 2790 seconds
#
# Revision: 0
# Processed by: cddbd v1.5.2PL0 Copyright (c) Steve Scherf et al.
# Submitted via: EZCDAudioConverter 3.1.7.1
#
DISCID=120ae414
DTITLE=Cash, Johnny - The Man in Black: 60 Original Recordings
DYEAR=2015
DGENRE=Country
TTITLE0=I Walk the Line
TTITLE1=Get Rhythm
TTITLE2=Country Boy
TTITLE3=Cry, Cry, Cry
TTITLE4=I Still Miss Someone
TTITLE5=Doin' My Time
TTITLE6=Clementine
TTITLE7=I Was There When It Happened
TTITLE8=Oh, What a Dream
TTITLE9=Seasons of My Heart
TTITLE10=Run Softly, Blue River
TTITLE11=Don't Take Your Guns to Town
TTITLE12=Drink to Me
TTITLE13=Five Feet High and Rising
TTITLE14=Pickin' Time
TTITLE15=I'll Remember You
TTITLE16=So Doggone Lonesome
TTITLE17=You Dreamer You
TTITLE18=One More Ride
TTITLE19=I Got Stripes
EXTD=
EXTT0=
EXTT1=
EXTT2=
EXTT3=
EXTT4=
EXTT5=
EXTT6=
EXTT7=
EXTT8=
EXTT9=
EXTT10=
EXTT11=
EXTT12=
EXTT13=
EXTT14=
EXTT15=
EXTT16=
EXTT17=
EXTT18=
EXTT19=
PLAYORDER=
